<svg width="712" height="272" viewBox="0 0 712 272" fill="none" xmlns="http://www.w3.org/2000/svg">
<path d="M242.965 211H212.936V150.941H45.3574V121.059H212.936V30.9707H105.27C95.0156 30.9707 85.3477 32.9727 76.2656 36.9766C67.1836 40.8828 59.2734 46.2539 52.5352 53.0898C45.7969 59.8281 40.4258 67.7383 36.4219 76.8203C32.5156 85.9023 30.5625 95.6191 30.5625 105.971V211H0.533203V105.971C0.533203 96.3027 1.75391 87.0254 4.19531 78.1387C6.73438 69.1543 10.25 60.8047 14.7422 53.0898C19.332 45.2773 24.8008 38.1973 31.1484 31.8496C37.5938 25.4043 44.6738 19.8867 52.3887 15.2969C60.2012 10.707 68.5508 7.19141 77.4375 4.75C86.3242 2.21094 95.6016 0.941406 105.27 0.941406H242.965V211ZM484.225 128.529C484.225 139.857 482.076 150.551 477.779 160.609C473.482 170.57 467.623 179.311 460.201 186.83C452.779 194.252 444.088 200.16 434.127 204.555C424.166 208.852 413.521 211 402.193 211H334.811V180.971H402.193C409.42 180.873 416.158 179.457 422.408 176.723C428.756 173.891 434.273 170.131 438.961 165.443C443.648 160.658 447.359 155.141 450.094 148.891C452.828 142.543 454.195 135.756 454.195 128.529C454.195 121.303 452.828 114.516 450.094 108.168C447.359 101.723 443.648 96.1562 438.961 91.4688C434.273 86.6836 428.756 82.9238 422.408 80.1895C416.158 77.3574 409.42 75.9414 402.193 75.9414H319.723V271.059H289.693V46.0586H402.193C413.521 46.1563 424.166 48.4023 434.127 52.7969C444.088 57.0938 452.779 63.002 460.201 70.5215C467.623 77.9434 473.482 86.6348 477.779 96.5957C482.076 106.557 484.225 117.201 484.225 128.529ZM711.275 128.529C711.275 139.857 709.127 150.551 704.83 160.609C700.533 170.57 694.674 179.311 687.252 186.83C679.83 194.252 671.139 200.16 661.178 204.555C651.217 208.852 640.572 211 629.244 211H561.861V180.971H629.244C636.471 180.873 643.209 179.457 649.459 176.723C655.807 173.891 661.324 170.131 666.012 165.443C670.699 160.658 674.41 155.141 677.145 148.891C679.879 142.543 681.246 135.756 681.246 128.529C681.246 121.303 679.879 114.516 677.145 108.168C674.41 101.723 670.699 96.1562 666.012 91.4688C661.324 86.6836 655.807 82.9238 649.459 80.1895C643.209 77.3574 636.471 75.9414 629.244 75.9414H546.773V271.059H516.744V46.0586H629.244C640.572 46.1563 651.217 48.4023 661.178 52.7969C671.139 57.0938 679.83 63.002 687.252 70.5215C694.674 77.9434 700.533 86.6348 704.83 96.5957C709.127 106.557 711.275 117.201 711.275 128.529Z" fill="url(#paint0_linear_1_2)"/>
<defs>
<linearGradient id="paint0_linear_1_2" x1="1920.96" y1="99" x2="-21" y2="100.979" gradientUnits="userSpaceOnUse">
<stop stop-color="#A30E2F"/>
<stop offset="1" stop-color="#930E2B"/>
</linearGradient>
</defs>
</svg>
